# xmcd
#
# Track frame offsets: 
#        150
#        14092
#        27707
#        45575
#        62677
#        74415
#        89895
#        101567
#        115317
#        132385
#
# Disc length: 2022 seconds
#
# Revision: 1
# Processed by: cddbd v1.5.2PL0 Copyright (c) Steve Scherf et al.
# Submitted via: ExactAudioCopy v0.95b4
#
DISCID=9807e40a
DTITLE=Rod Mason Band - Stars Fell On Alabama
DYEAR=1992
DGENRE=Jazz
TTITLE0=Bugle Boy March
TTITLE1=Don't Try To Keep Up With The Jones's
TTITLE2=Star Fell On Alabama
TTITLE3=Blues My Naughty Sweety Gives To Me
TTITLE4=Old Mississippi Rag
TTITLE5=Monday Date
TTITLE6=Black Cat On A Fence
TTITLE7=St James Infirmary
TTITLE8=Silver Dollar
TTITLE9=I'm Crazy Bout My Baby
EXTD=
EXTT0=
EXTT1=
EXTT2=
EXTT3=
EXTT4=
EXTT5=
EXTT6=
EXTT7=
EXTT8=
EXTT9=
PLAYORDER=
